<svg xmlns="http://www.w3.org/2000/svg" viewBox="0 0 800 200" width="800" height="200">
  <defs>
    <linearGradient id="logobg" x1="0%" y1="0%" x2="100%" y2="100%">
      <stop offset="0%" style="stop-color:#ff6b35"/>
      <stop offset="100%" style="stop-color:#e84118"/>
    </linearGradient>
    <linearGradient id="clawfill" x1="0%" y1="0%" x2="100%" y2="100%">
      <stop offset="0%" style="stop-color:#fff"/>
      <stop offset="100%" style="stop-color:#f0e6d3"/>
    </linearGradient>
  </defs>

  <!-- Background -->
  <rect width="800" height="200" rx="12" fill="#0d1117"/>

  <!-- Logo circle -->
  <circle cx="100" cy="100" r="75" fill="url(#logobg)"/>

  <!-- Claw -->
  <g transform="translate(100,108) scale(0.7)">
    <path d="M-8,-45 C-35,-55 -55,-35 -50,-10 C-47,5 -35,12 -20,10 L-8,0 Z"
          fill="url(#clawfill)" opacity="0.95"/>
    <path d="M8,-45 C35,-55 55,-35 50,-10 C47,5 35,12 20,10 L8,0 Z"
          fill="url(#clawfill)" opacity="0.95"/>
    <ellipse cx="0" cy="10" rx="18" ry="22" fill="url(#clawfill)" opacity="0.95"/>
  </g>

  <!-- Eyes on claw -->
  <circle cx="85" cy="85" r="6" fill="#1a1a2e"/>
  <circle cx="86.5" cy="83.5" r="2" fill="#fff"/>
  <circle cx="115" cy="85" r="6" fill="#1a1a2e"/>
  <circle cx="116.5" cy="83.5" r="2" fill="#fff"/>

  <!-- Signal waves -->
  <path d="M140,78 C148,70 148,62 140,54" stroke="#fff" stroke-width="2" fill="none" opacity="0.5" stroke-linecap="round"/>
  <path d="M146,82 C156,72 156,56 146,46" stroke="#fff" stroke-width="2" fill="none" opacity="0.3" stroke-linecap="round"/>

  <!-- Text: TrioClaw -->
  <text x="210" y="108" font-family="-apple-system, BlinkMacSystemFont, 'Segoe UI', Helvetica, Arial, sans-serif" font-size="64" font-weight="700" fill="#ffffff" letter-spacing="-1">
    Trio<tspan fill="#ff6b35">Claw</tspan>
  </text>

  <!-- Tagline -->
  <text x="213" y="140" font-family="-apple-system, BlinkMacSystemFont, 'Segoe UI', Helvetica, Arial, sans-serif" font-size="18" fill="#8b8b8b" letter-spacing="0.5">
    Eyes, ears, voice &amp; hands for AI agents
  </text>

  <!-- Four sense icons (minimal) -->
  <g transform="translate(213, 155)" fill="#555">
    <text x="0" y="14" font-size="12" font-family="monospace" fill="#ff6b35">&#x25CF;</text>
    <text x="12" y="14" font-size="11" font-family="sans-serif" fill="#888">Vision</text>
    <text x="75" y="14" font-size="12" font-family="monospace" fill="#ff8c5a">&#x25CF;</text>
    <text x="87" y="14" font-size="11" font-family="sans-serif" fill="#888">Hearing</text>
    <text x="160" y="14" font-size="12" font-family="monospace" fill="#ffad85">&#x25CF;</text>
    <text x="172" y="14" font-size="11" font-family="sans-serif" fill="#888">Voice</text>
    <text x="232" y="14" font-size="12" font-family="monospace" fill="#ffd0b5">&#x25CF;</text>
    <text x="244" y="14" font-size="11" font-family="sans-serif" fill="#888">Control</text>
  </g>
</svg>
